PathFileType	4	(X/Y/Z)	C:/Users/opensim2020/Desktop/walking_exp_matlab/subject06_walking22_straight_04.trc	
DataRate	CameraRate	NumFrames	NumMarkers	Units	OrigDataRate	OrigDataStartFrame	OrigNumFrames	
100.00	100.00	7	44	mm	100.00	2200	102	
Frame#	Time	LFHD			RFHD			LBHD			RBHD			C7			T10			CLAV			STRN			RBAK			LSHO			LUPA			LELB			LFRM			LWRA			LWRB			LFIN			RSHO			RUPA			RELB			RFRM			RWRA			RWRB			RFIN			LASI			RASI			LPSI			RPSI			LTHI			LKNE			LTIB			LANK			LHEE			LTOE			RTHI			RKNE			RTIB			RANK			RHEE			RTOE			*39			*40			*41			*42			*43			
		X1	Y1	Z1	X2	Y2	Z2	X3	Y3	Z3	X4	Y4	Z4	X5	Y5	Z5	X6	Y6	Z6	X7	Y7	Z7	X8	Y8	Z8	X9	Y9	Z9	X10	Y10	Z10	X11	Y11	Z11	X12	Y12	Z12	X13	Y13	Z13	X14	Y14	Z14	X15	Y15	Z15	X16	Y16	Z16	X17	Y17	Z17	X18	Y18	Z18	X19	Y19	Z19	X20	Y20	Z20	X21	Y21	Z21	X22	Y22	Z22	X23	Y23	Z23	X24	Y24	Z24	X25	Y25	Z25	X26	Y26	Z26	X27	Y27	Z27	X28	Y28	Z28	X29	Y29	Z29	X30	Y30	Z30	X31	Y31	Z31	X32	Y32	Z32	X33	Y33	Z33	X34	Y34	Z34	X35	Y35	Z35	X36	Y36	Z36	X37	Y37	Z37	X38	Y38	Z38	X39	Y39	Z39	X40	Y40	Z40	X41	Y41	Z41	X42	Y42	Z42	X43	Y43	Z43	X44	Y44	Z44	

13	0.120	-884.61090	556.55548	1617.23132	-1016.41724	542.44678	1616.17493	-903.88733	693.24298	1576.77051	-1032.28857	677.15216	1580.28772	-963.09021	698.17096	1417.66162	-974.02228	738.92542	1088.53149	-964.22931	589.00250	1337.72522	-968.28912	551.74750	1163.41272	-1049.01111	776.31421	1253.36536	-801.72968	646.52728	1365.32422	-735.22168	703.67206	1172.90601	-729.86438	746.67023	1068.47449	-706.56677	780.61969	923.08984	-741.69647	765.75464	792.31110	-710.14117	827.33276	813.47565	-706.46716	823.29156	722.16846	-1123.45056	634.70758	1376.47717	-1234.00537	661.76678	1191.78540	-1261.28101	636.51111	1078.84167	-1272.46033	558.67841	993.90491	-1218.02930	434.27740	927.50500	-1267.15137	466.38412	894.77094	-1255.11243	389.88351	862.61261	-886.96381	544.97095	934.05048	-1103.81079	580.29279	934.24872	-886.17877	704.76459	952.89960	-1051.34033	724.92896	958.41888	-812.47382	526.85382	628.56714	-844.90668	461.00583	483.32480	-849.10059	419.47836	228.60559	-891.97333	369.19403	63.16217	-938.25635	402.68774	38.72042	-897.26672	225.50211	77.10266	-1151.96777	696.07886	608.75110	-1137.41235	721.47833	482.43747	-1121.83777	910.85315	285.81683	-1073.67285	1034.98706	149.18329	-1025.39856	1075.80042	153.62947	-1084.55139	939.64423	31.90604	-951.15570	645.26752	1669.47754												 
14	0.130	-883.66260	540.89783	1618.27026	-1015.49377	527.04901	1616.94592	-902.60535	677.75409	1577.90222	-1030.81287	661.58289	1581.11731	-961.39246	682.71863	1418.15039	-972.55768	721.84283	1089.02356	-963.01556	572.99573	1338.79468	-967.48822	534.74164	1164.68079	-1047.07629	760.38171	1253.62036	-800.34210	629.85803	1366.25549	-733.82214	686.76428	1174.01111	-729.04071	730.22162	1069.65479	-706.27924	764.27014	924.11481	-741.77557	749.22900	793.36670	-710.47198	810.72180	814.43298	-707.14154	807.10547	723.10809	-1121.81274	619.98761	1377.70654	-1232.51221	647.47290	1193.23840	-1259.38135	623.15289	1079.84229	-1271.01245	546.39923	993.83282	-1217.10181	422.52197	925.73370	-1266.07764	455.35764	893.27765	-1254.14209	379.29288	860.00323	-887.04828	527.16534	935.54541	-1102.86694	563.24530	935.25659	-885.17908	686.86194	954.63812	-1050.23230	707.68884	958.79352	-813.29700	508.48950	630.11798	-843.60913	445.89407	483.20761	-850.79065	409.69635	227.98524	-891.98608	364.51169	63.60386	-939.30243	398.42749	41.68532	-895.62183	219.38695	66.65124	-1152.59473	676.19867	607.54089	-1139.68469	698.96783	480.53528	-1121.11389	894.47583	291.07489	-1071.43909	1023.16803	160.15945	-1022.06647	1061.22729	167.92342	-1084.53198	941.66821	33.03132	-950.12933	629.71967	1670.52686												 
15	0.140	-882.69934	525.36310	1619.63245	-1014.49164	511.82556	1618.16431	-901.20551	662.21710	1579.28284	-1029.45203	646.39197	1582.30139	-959.41797	667.07135	1418.90649	-971.47205	704.91766	1089.54077	-961.89063	557.03644	1340.14380	-966.78766	517.91650	1166.16321	-1044.69800	744.39459	1253.89050	-798.86145	613.17200	1367.37256	-732.45709	669.96869	1175.23755	-727.97845	713.30078	1070.79822	-705.41010	747.36578	925.13336	-742.61365	732.63672	794.66223	-710.24738	793.55957	815.30121	-707.80176	789.72345	723.86932	-1120.24097	605.40302	1379.10840	-1230.95544	633.54272	1194.65076	-1257.53699	610.13049	1080.80200	-1269.56714	534.58936	993.47980	-1216.36487	411.53067	923.43939	-1264.98181	445.15540	891.31885	-1253.57422	369.44543	857.13373	-887.10602	509.51398	937.16003	-1101.67444	546.43262	936.02991	-884.21686	669.22607	956.80359	-1049.31506	690.57709	959.03455	-813.12817	491.08994	631.97290	-841.83984	431.52921	484.02359	-850.01648	398.03906	228.88031	-891.22980	358.71881	63.26541	-938.33142	394.31653	43.71307	-895.07452	213.84581	61.41789	-1153.54675	655.74884	605.82971	-1142.38867	675.74835	478.34512	-1120.48425	876.04266	296.28732	-1069.35229	1009.78253	172.14374	-1018.81287	1044.60876	182.61179	-1084.83081	941.17871	35.98347	-949.01678	614.29401	1671.73267												 
16	0.150	-881.75586	509.93747	1620.99951	-1013.59369	496.76846	1619.39136	-899.81116	646.58405	1580.44519	-1028.17419	631.51923	1583.50879	-957.57593	651.18909	1419.80066	-970.49664	688.29279	1090.14355	-960.83441	541.05713	1341.41675	-966.04016	501.33423	1167.59412	-1042.18103	728.38788	1254.20740	-797.53381	596.17963	1368.46948	-730.77966	652.23114	1176.32227	-726.74524	695.87347	1071.84900	-704.73950	729.21515	925.84924	-742.22986	713.79346	795.57147	-709.99921	775.27380	815.93805	-708.40491	771.18201	724.38409	-1118.94556	590.86536	1380.67139	-1229.34351	619.93292	1196.01843	-1255.69446	597.40503	1081.74841	-1268.16479	523.39862	993.03033	-1215.76843	401.18457	920.82214	-1264.28333	435.66138	889.25226	-1253.11121	360.55270	853.62817	-886.62048	491.77792	938.88196	-1100.43005	529.92383	936.60907	-883.73688	652.53418	959.55341	-1048.98535	673.99774	959.13525	-811.70850	474.52258	634.59491	-840.13068	416.95694	485.79346	-848.31262	387.53671	230.52548	-890.46326	354.21671	62.97038	-937.35199	391.85956	45.66542	-895.18219	210.18431	55.34734	-1154.58398	634.90900	603.91754	-1145.14063	652.23944	476.19498	-1120.21765	855.99646	301.81042	-1066.96094	994.30219	184.33348	-1016.00958	1026.09644	197.51129	-1084.64209	938.03229	40.38119	-947.82062	599.04211	1673.07397												 
17	0.160	-880.81763	494.35715	1622.20117	-1012.74432	481.74451	1620.54846	-898.29327	631.13177	1581.56152	-1026.91113	616.67938	1584.57104	-955.89117	635.15710	1420.87415	-969.91589	672.06567	1090.82275	-959.99335	525.11298	1342.62903	-965.47620	485.17453	1168.88440	-1039.90173	712.47205	1254.54871	-796.40363	578.88245	1369.55090	-729.34387	634.61481	1177.45557	-725.37872	677.88019	1072.75122	-703.84882	710.51630	926.46344	-742.74066	696.60199	796.33209	-709.27740	756.06042	816.17749	-708.91547	751.43268	724.54596	-1117.84021	576.10120	1382.18408	-1227.70630	606.68506	1197.38867	-1253.73401	584.96832	1082.66321	-1266.71643	512.64337	992.44739	-1215.29773	391.46307	917.83478	-1263.42969	427.05035	886.76215	-1252.86511	352.54053	849.76685	-885.79218	474.57092	940.54669	-1099.17297	513.79297	936.89813	-883.77228	636.34882	961.82703	-1049.12952	657.82086	958.99200	-809.72357	458.98419	637.54437	-839.15021	401.87259	488.22998	-846.33551	379.23901	231.40573	-889.46600	352.23120	62.79077	-936.04596	390.29608	46.72709	-896.48297	207.58907	48.55167	-1155.44189	613.84814	602.15063	-1147.33533	628.08722	474.18936	-1119.92773	833.98285	307.25644	-1064.94971	975.73737	196.16219	-1013.10132	1004.20117	211.88289	-1084.34790	934.57556	44.70911	-946.55676	583.71362	1674.15881												 
18	0.170	-879.84656	478.94656	1623.30835	-1011.83765	466.81979	1621.75037	-896.94293	615.72131	1582.31470	-1025.47717	601.55518	1585.31226	-954.47546	619.24133	1421.91321	-969.29272	656.26404	1091.72827	-959.34808	509.29257	1343.68225	-965.07916	469.15372	1169.88892	-1037.95166	696.73999	1255.14441	-795.44995	561.36169	1370.57178	-727.97791	616.32550	1178.24438	-723.96893	659.49908	1073.51990	-703.09863	690.98199	926.78131	-742.05231	675.65930	797.26215	-708.43378	735.80292	816.14056	-709.24585	730.60736	724.37854	-1116.86108	561.18353	1383.57056	-1226.03760	593.67749	1198.71021	-1251.68250	572.93713	1083.55542	-1265.26233	502.40564	991.75708	-1214.97180	382.47253	914.45483	-1262.63330	419.24741	884.06110	-1252.72083	345.40112	845.43134	-884.75781	458.24838	942.17047	-1098.14380	498.13791	936.97314	-884.33569	621.15125	963.66895	-1049.63208	642.20685	958.83527	-807.73120	444.02936	640.24066	-838.42175	387.54248	490.17529	-845.05969	371.93396	232.16794	-888.90332	349.31534	62.48048	-934.83984	388.41406	47.85634	-897.38458	205.14507	43.56010	-1155.98120	592.60284	600.61218	-1148.92822	603.16107	472.44611	-1119.94629	809.92804	311.84451	-1063.25854	954.38495	206.39575	-1010.33545	979.21045	224.43411	-1083.22937	929.19232	50.00954	-945.32910	568.73413	1675.09399												 
19	0.180	-878.89032	463.77783	1624.44165	-1010.92731	451.94644	1623.17041	-895.56158	600.34155	1582.79370	-1024.00854	586.24982	1585.99902	-953.16522	603.42828	1422.83289	-968.66333	640.71375	1092.86572	-958.88354	493.42981	1344.65344	-965.01141	454.25830	1170.55420	-1036.34338	681.29724	1256.08228	-794.60565	543.93481	1371.51355	-726.61584	597.57007	1178.75513	-722.52740	640.86743	1073.99854	-701.50940	671.35266	926.92010	-741.76843	654.35419	797.89221	-707.25952	714.79407	815.73816	-709.34814	708.81091	723.86975	-1116.02917	546.21082	1384.81897	-1224.35059	580.87561	1199.79858	-1249.60022	561.20313	1084.27515	-1263.85693	492.72089	990.87573	-1214.84766	374.12686	910.67853	-1261.88306	412.13269	880.98938	-1252.83777	339.06979	840.70367	-883.57727	442.84625	943.67480	-1097.29785	482.77252	936.93854	-884.78247	606.66034	965.11298	-1050.11963	626.97162	958.63287	-806.53986	429.87723	642.20953	-837.62299	374.85452	491.03064	-844.53906	364.47156	232.80444	-889.37799	346.77505	62.37182	-934.97546	386.54608	48.99239	-897.22485	203.16425	41.25165	-1156.38647	571.35065	599.36884	-1150.15234	577.55341	471.21484	-1120.64063	784.15454	315.24380	-1061.98962	931.09106	214.53270	-1008.00952	951.88751	234.84723	-1081.79651	921.08881	55.58548	-943.98175	553.95160	1675.80981												 
